<?xml version="1.0" encoding="utf-8"?>
<!-- Generator: Adobe Illustrator 24.0.2, SVG Export Plug-In . SVG Version: 6.00 Build 0)  -->
<svg version="1.1" xmlns="http://www.w3.org/2000/svg" xmlns:xlink="http://www.w3.org/1999/xlink" x="0px" y="0px"
	 viewBox="0 0 1366 768" style="enable-background:new 0 0 1366 768;" xml:space="preserve">
<style type="text/css">
	.st0{fill:#282828;stroke:#282828;stroke-miterlimit:10;}
</style>
<g id="Layer_1">
</g>
<g id="Layer_2">
	<path class="st0" d="M1366,680.1c-26.11-1.97-98.28-6.21-155.19,1.83c-70.8,10-116.97,19-195.97,18s-209.31-26-280.1-24
		s-186.74,22-302.68,21s-227.78-27-328.33-27c-48.63,0-78.06,4.68-103.15,9.4c-0.2,0.04-0.39,0.07-0.59,0.11L0,88.69
		c0,0,0.01,0,0.01,0C23.85,90.59,96.21,95.23,153,87c69-10,114-19,191-18s204,26,273,24s182-22,295-21s222,27,320,27
		c69.87,0,99.07-10.17,134-15.64L1366,680.1z"/>
</g>
</svg>
